<svg width="178" height="63" viewBox="0 0 178 63" fill="none" xmlns="http://www.w3.org/2000/svg">
<path d="M32.6473 60.1483C32.7885 60.1455 32.9853 60.1242 33.1136 60.1478C39.5519 61.1954 46.1574 61.3191 52.7843 61.3019C55.8647 61.2935 58.9279 61.2243 61.9911 61.155C62.2305 61.1414 62.4704 61.1278 62.7608 61.0081C62.235 60.9396 61.7214 60.8444 61.1956 60.7759C50.094 59.1539 39.5876 56.6873 30.0143 52.7728C29.5524 52.5714 29.0091 52.4421 28.453 52.3388C22.2244 50.9538 16.2483 49.2393 10.9399 46.7223C8.10393 45.358 5.59745 43.7941 3.66863 41.9027C0.0847082 38.2291 -0.453107 34.4251 2.0253 30.4561C3.53202 28.0147 5.90287 25.9072 8.65008 23.9847C10.5501 22.658 12.6681 21.4585 14.8889 20.3359C15.2612 20.1444 15.6891 19.9343 15.9458 19.6924C19.9943 15.7537 25.3986 12.6739 31.6628 10.1296C38.9666 7.17002 46.9504 5.11782 55.3019 3.65461C68.2231 1.41698 81.3699 0.639362 94.7263 0.971289C102.551 1.17596 110.325 1.77625 117.935 2.8095C128.433 4.2328 138.499 6.35746 147.953 9.55532C155.079 11.9749 161.594 14.889 167.048 18.6483C170.482 20.9919 173.279 23.5937 175.203 26.5548C177.252 29.7412 178.033 33.0409 177.125 36.4614C176.645 38.2247 175.738 39.9088 174.33 41.4711C172.532 43.4538 170.521 45.3965 168.031 47.0769C164.376 49.5255 160.029 51.3833 155.297 52.88C149.131 54.8347 142.624 56.1477 135.898 57.0435C126.28 58.3301 116.487 59.2079 106.702 59.9717C95.9902 60.8239 85.2514 61.4396 74.5003 61.7931C65.6397 62.0909 56.8012 62.2486 47.9669 61.9148C43.154 61.747 38.3582 61.3507 33.751 60.4685C33.3659 60.3972 33.0237 60.334 32.6387 60.2627C32.6088 60.2279 32.6345 60.1751 32.6473 60.1483ZM54.0831 53.6994C56.8297 54.0925 61.497 54.7542 66.2329 55.3707C67.8537 55.584 69.5568 55.7258 71.2126 55.7722C76.3333 55.8811 81.4158 55.7806 86.5068 55.5656C97.3653 55.0877 108.082 54.0337 118.513 52.0294C125.919 50.5939 133.008 48.7522 139.551 46.1146C143.723 44.4273 147.569 42.4483 150.587 39.968C153.141 37.8657 154.922 35.5327 155.415 32.8747C155.916 30.1023 154.941 27.4907 152.859 25.0501C150.789 22.5831 147.919 20.5178 144.553 18.7077C138.864 15.6283 132.301 13.4869 125.282 11.8106C118.133 10.1105 110.762 9.06375 103.199 8.41543C93.2096 7.57837 83.2159 7.52188 73.2176 8.24594C62.0642 9.0455 51.2224 10.7421 40.9624 13.6462C35.1349 15.2874 29.6924 17.2894 24.8743 19.9278C20.4927 22.242 16.9922 24.9509 15.0659 28.3566C13.3622 31.3981 13.2841 34.4515 15.0843 37.4762C16.4226 39.721 18.6338 41.6064 21.26 43.3085C24.9642 45.6731 29.3487 47.498 34.0713 49.0092C39.842 50.8593 45.8995 52.2127 54.0831 53.6994ZM114.998 8.69051C114.972 8.74363 115.002 8.77814 114.976 8.83126C115.789 8.98177 116.602 9.13232 117.415 9.28283C122.489 10.1646 127.404 11.2775 132.109 12.7278C137.517 14.3658 142.547 16.3972 146.953 18.9496C150.37 20.9428 153.249 23.1834 155.117 25.8735C157.867 29.8269 157.746 33.7406 154.742 37.6411C152.798 40.1173 150.03 42.1805 146.769 44.0074C142.558 46.3532 137.801 48.1926 132.76 49.7481C126.034 51.8016 118.996 53.2475 111.757 54.3379C103.016 55.6425 94.1345 56.3706 85.1763 56.6797C84.7527 56.6881 84.3161 56.7229 83.8924 56.7313C84.1537 56.8662 84.3672 56.9058 84.6498 56.9002C89.1373 57.066 93.6423 57.2925 98.1259 57.3702C109.044 57.5399 119.893 57.176 130.657 55.9283C138.555 55.0176 146.218 53.6298 153.445 51.4081C157.985 50.0207 162.212 48.3146 165.939 46.1975C168.964 44.4714 171.053 42.3694 172.264 39.96C173.904 36.7616 173.567 33.6025 171.706 30.509C169.967 27.5528 167.088 25.0229 163.615 22.759C157.866 19.0318 150.979 16.3093 143.442 14.1609C137.38 12.4305 131.151 11.0454 124.675 10.0775C121.471 9.57089 118.228 9.14397 114.998 8.69051ZM175.551 34.8963C175.594 34.9043 175.65 34.8854 175.65 34.8854C175.658 34.7714 175.71 34.6653 175.706 34.5776C175.98 32.3712 175.493 30.1972 174.416 28.0876C172.672 24.7545 169.776 21.8741 166.046 19.2732C161.863 16.3569 157.012 13.9536 151.669 11.8933C140.783 7.70658 128.942 5.10845 116.497 3.46935C110.011 2.61555 103.5 2.10425 96.8608 1.85859C83.6117 1.40177 70.5283 2.04657 57.6718 4.15141C49.0209 5.55914 40.7975 7.62488 33.1985 10.6166C28.4833 12.4638 24.2215 14.6265 20.6055 17.285C20.4002 17.4207 20.2247 17.5907 20.0065 17.7529C20.276 17.7739 20.4429 17.718 20.6097 17.6621C27.6782 14.8036 35.2728 12.5925 43.2906 10.9518C66.9379 6.09899 91.0583 5.18306 115.516 7.71563C124.436 8.644 133.073 10.1568 141.389 12.3336C147.801 14.0132 153.837 16.0861 159.321 18.7223C163.56 20.7518 167.29 23.0633 170.267 25.8719C173.051 28.5003 174.94 31.3392 175.363 34.5144C175.47 34.6789 175.517 34.7742 175.551 34.8963ZM13.0699 22.7485C12.5478 23.057 12.1755 23.2485 11.8332 23.4745C8.23878 25.703 5.14915 28.1404 3.37271 31.1399C1.59628 34.1389 1.68509 37.1363 3.90451 40.0653C5.44403 42.0868 7.728 43.7252 10.427 45.1803C13.9688 47.1097 18.024 48.5552 22.2932 49.7509C22.9948 49.939 23.6536 50.1188 24.3552 50.3065C10.9284 42.6973 6.3238 33.7122 13.0699 22.7485ZM36.9532 53.942C36.9403 53.9688 36.8719 54.0137 36.859 54.0405C37.0173 54.0985 37.2055 54.1914 37.3638 54.2499C40.7817 55.3747 44.2767 56.3402 47.8657 57.2077C54.2568 58.7384 60.845 59.9585 67.5698 60.7987C68.267 60.8992 68.9902 60.946 69.7088 60.9056C80.8926 60.4301 92.0499 59.7179 103.144 58.8493C103.383 58.8361 103.648 58.7692 103.888 58.7556C103.43 58.6419 102.977 58.6159 102.511 58.6163C94.0996 58.5639 85.7746 58.2372 77.4322 57.5607C72.9486 57.1932 68.4779 56.7993 63.9477 56.626C56.3323 56.3734 48.8246 55.7065 41.4237 54.6253C39.9692 54.3559 38.4462 54.1318 36.9532 53.942ZM36.3675 13.895C36.3804 13.8684 36.3504 13.8339 36.3632 13.8074C35.345 14.0818 34.3267 14.3563 33.3512 14.6387C27.7761 16.2399 22.4278 18.1435 17.4943 20.4422C17.0107 20.671 16.4887 20.9795 16.1934 21.3011C14.1263 23.5519 12.6452 25.94 12.007 28.5135C10.6147 33.8991 12.3115 38.8728 17.0417 43.4534C20.1125 46.4533 24.1845 48.8278 28.7657 50.921C30.0961 51.5434 31.5719 51.9614 33.1547 52.2548C39.7983 53.4561 46.609 54.3123 53.4624 54.8867C54.4977 54.9628 55.533 55.0388 56.5813 55.0881C46.1729 53.1895 44.603 52.87 37.6601 51.0343C33.1213 49.8174 28.8522 48.3323 24.9168 46.4456C20.9088 44.517 17.4229 42.2793 15.0665 39.4408C12.6503 36.5335 11.8513 33.4624 12.8107 30.2252C13.5859 27.5616 15.4349 25.1834 18.0282 23.0011C21.4089 20.1543 25.6964 17.9384 30.4373 16.0381C32.4226 15.306 34.3822 14.6271 36.3675 13.895Z" fill="#6A2983"/>
</svg>
