<svg width="14" height="14" viewBox="0 0 14 14" fill="none" xmlns="http://www.w3.org/2000/svg">
<mask id="mask0_120_851" style="mask-type:alpha" maskUnits="userSpaceOnUse" x="0" y="0" width="14" height="14">
<rect y="0.0769043" width="13.8462" height="13.8462" fill="#D9D9D9"/>
</mask>
<g mask="url(#mask0_120_851)">
<path d="M6.9231 6.82248C6.36782 6.82248 5.89247 6.62476 5.49703 6.22934C5.1016 5.83391 4.90388 5.35855 4.90388 4.80327C4.90388 4.24799 5.1016 3.77263 5.49703 3.37721C5.89247 2.98177 6.36782 2.78406 6.9231 2.78406C7.47838 2.78406 7.95373 2.98177 8.34917 3.37721C8.7446 3.77263 8.94232 4.24799 8.94232 4.80327C8.94232 5.35855 8.7446 5.83391 8.34917 6.22934C7.95373 6.62476 7.47838 6.82248 6.9231 6.82248ZM2.59619 11.216V9.93343C2.59619 9.65089 2.67293 9.38925 2.82641 9.1485C2.97988 8.90775 3.18495 8.72265 3.4416 8.59321C4.01187 8.31362 4.58713 8.10394 5.16738 7.96415C5.74763 7.82436 6.33287 7.75447 6.9231 7.75447C7.51333 7.75447 8.09857 7.82436 8.67882 7.96415C9.25907 8.10394 9.83433 8.31362 10.4046 8.59321C10.6613 8.72265 10.8663 8.90775 11.0198 9.1485C11.1733 9.38925 11.25 9.65089 11.25 9.93343V11.216H2.59619Z" fill="#6A2983"/>
</g>
</svg>
